<?xml version="1.0" standalone="no"?><!DOCTYPE svg PUBLIC "-//W3C//DTD SVG 1.1//EN" "http://www.w3.org/Graphics/SVG/1.1/DTD/svg11.dtd"><svg class="icon" width="200px" height="200.00px" viewBox="0 0 1024 1024" version="1.1" xmlns="http://www.w3.org/2000/svg"><path d="M866.133333 870.4h-57.6V535.466667c0-166.4-134.4-302.933333-298.666666-302.933334s-298.666667 136.533333-298.666667 302.933334v337.066666H160c-12.8 0-21.333333 8.533333-21.333333 21.333334s8.533333 21.333333 21.333333 21.333333h706.133333c12.8 0 21.333333-8.533333 21.333334-21.333333s-10.666667-23.466667-21.333334-23.466667z m-612.266666 0V535.466667c0-142.933333 115.2-260.266667 256-260.266667s256 117.333333 256 260.266667v337.066666h-512z" fill="#666666" /><path d="M614.4 571.733333c0-2.133333-2.133333-2.133333-2.133333-4.266666s-2.133333-2.133333-2.133334-4.266667c-4.266667-2.133333-8.533333-4.266667-12.8-4.266667h-130.133333l74.666667-104.533333c6.4-8.533333 4.266667-23.466667-4.266667-29.866667-8.533333-6.4-23.466667-4.266667-29.866667 4.266667l-100.266666 138.666667c-6.4 8.533333-4.266667 19.2 2.133333 27.733333l2.133333 2.133333s0 2.133333 2.133334 2.133334 2.133333 2.133333 4.266666 2.133333H554.666667l-76.8 104.533333c-6.4 8.533333-4.266667 23.466667 4.266666 29.866667 4.266667 2.133333 8.533333 4.266667 12.8 4.266667 6.4 0 12.8-2.133333 17.066667-8.533334l100.266667-138.666666c6.4-6.4 6.4-14.933333 2.133333-21.333334zM170.666667 531.2c0-12.8-8.533333-21.333333-21.333334-21.333333H64c-12.8 0-21.333333 8.533333-21.333333 21.333333s8.533333 21.333333 21.333333 21.333333h85.333333c10.666667 0 21.333333-8.533333 21.333334-21.333333zM957.866667 509.866667h-85.333334c-12.8 0-21.333333 8.533333-21.333333 21.333333s8.533333 21.333333 21.333333 21.333333h85.333334c12.8 0 21.333333-8.533333 21.333333-21.333333s-10.666667-21.333333-21.333333-21.333333zM768 296.533333c6.4 0 10.666667-2.133333 14.933333-6.4l59.733334-59.733333c8.533333-8.533333 8.533333-21.333333 0-29.866667-8.533333-8.533333-21.333333-8.533333-29.866667 0l-59.733333 59.733334c-8.533333 8.533333-8.533333 21.333333 0 29.866666 2.133333 4.266667 8.533333 6.4 14.933333 6.4zM241.066667 290.133333c4.266667 4.266667 10.666667 6.4 14.933333 6.4s10.666667-2.133333 14.933333-6.4c8.533333-8.533333 8.533333-21.333333 0-29.866666L211.2 200.533333c-8.533333-8.533333-21.333333-8.533333-29.866667 0s-8.533333 21.333333 0 29.866667l59.733334 59.733333zM509.866667 189.866667c12.8 0 21.333333-8.533333 21.333333-21.333334V85.333333c0-12.8-8.533333-21.333333-21.333333-21.333333s-21.333333 8.533333-21.333334 21.333333v83.2c0 12.8 10.666667 21.333333 21.333334 21.333334z" fill="#666666" /></svg>