<?xml version="1.0" standalone="no"?><!DOCTYPE svg PUBLIC "-//W3C//DTD SVG 1.1//EN" "http://www.w3.org/Graphics/SVG/1.1/DTD/svg11.dtd"><svg class="icon" width="200px" height="200.00px" viewBox="0 0 1024 1024" version="1.1" xmlns="http://www.w3.org/2000/svg"><path d="M1024 232.727273c0-65.163636-51.2-116.363636-116.363636-116.363637-55.854545 0-102.4 37.236364-111.709091 88.436364L186.181818 111.709091C186.181818 60.509091 144.290909 23.272727 93.090909 23.272727s-93.090909 41.890909-93.090909 93.090909c0 46.545455 32.581818 83.781818 74.472727 93.090909L218.763636 837.818182c-18.618182 13.963636-32.581818 41.890909-32.581818 69.818182 0 51.2 41.890909 93.090909 93.090909 93.090909 46.545455 0 83.781818-32.581818 93.090909-79.127273l386.327273-65.163636c13.963636 27.927273 46.545455 51.2 83.781818 51.2 51.2 0 93.090909-41.890909 93.090909-93.090909 0-37.236364-18.618182-65.163636-51.2-83.781819l41.890909-381.672727v-4.654545C977.454545 339.781818 1024 293.236364 1024 232.727273zM125.672727 204.8c23.272727-9.309091 37.236364-23.272727 46.545455-41.890909l619.054545 93.090909c9.309091 41.890909 41.890909 79.127273 83.781818 93.090909v4.654546l-41.890909 372.363636c-51.2 0-88.436364 41.890909-93.090909 88.436364l-377.018182 65.163636c-13.963636-37.236364-46.545455-60.509091-88.436363-60.509091h-9.309091l-139.636364-614.4z m781.963637 97.745455c-37.236364 0-69.818182-32.581818-69.818182-69.818182s32.581818-69.818182 69.818182-69.818182S977.454545 195.490909 977.454545 232.727273s-32.581818 69.818182-69.818181 69.818182z"  /></svg>